<svg width="42" height="42" viewBox="0 0 42 42" fill="none" xmlns="http://www.w3.org/2000/svg">
<g filter="url(#filter0_d_9_127)">
<path d="M14.0205 5.94722L13.8756 5.7H13.5891H9.03429H8.74672L8.60211 5.94855L6.27484 9.94855L6.12854 10.2L6.27484 10.4514L8.60211 14.4514L8.74672 14.7H9.03429H13.5891H13.8756L14.0205 14.4528L16.3644 10.4528L16.5125 10.2L16.3644 9.94722L14.0205 5.94722ZM7.27206 3.66765L7.27215 3.66771L7.27735 3.65834C7.32074 3.58002 7.43428 3.5 7.57143 3.5H15.051C15.1149 3.5003 15.1764 3.51698 15.2292 3.54699C15.282 3.57702 15.3231 3.61867 15.3502 3.6657L15.3513 3.66765L19.0158 9.95919L19.0962 10.2L19.0158 10.4408L15.3513 16.7324L15.3512 16.7323L15.346 16.7417C15.3026 16.82 15.1891 16.9 15.0519 16.9H7.57143C7.43428 16.9 7.32074 16.82 7.27735 16.7417L7.27745 16.7416L7.27206 16.7324L3.60756 10.4408L3.52714 10.2L3.60756 9.95919L7.27206 3.66765ZM29.3994 14.7513L29.2554 14.5H28.9657H24.4109H24.1213L23.9772 14.7513L21.6831 18.7513L21.5405 19L21.6831 19.2487L23.9772 23.2488L24.1213 23.5H24.4109H28.9657H29.2554L29.3994 23.2488L31.6935 19.2487L31.8361 19L31.6935 18.7513L29.3994 14.7513ZM22.6487 12.4677L22.6488 12.4677L22.654 12.4583C22.6974 12.38 22.8109 12.3 22.9481 12.3H30.4278C30.4916 12.3003 30.5531 12.317 30.6058 12.347C30.6586 12.377 30.6997 12.4187 30.7268 12.4657L30.7279 12.4677L34.3924 18.7592L34.4729 19L34.3924 19.2408L30.7279 25.5324L30.7278 25.5323L30.7227 25.5417C30.6793 25.62 30.5657 25.7 30.4286 25.7H22.9481C22.8109 25.7 22.6974 25.62 22.654 25.5417L22.6541 25.5416L22.6487 25.5324L18.9842 19.2408L18.9038 19L18.9842 18.7592L22.6487 12.4677ZM14.0205 23.5472L13.8756 23.3H13.5891H9.03429H8.74672L8.60211 23.5486L6.27484 27.5486L6.12854 27.8L6.27484 28.0514L8.60211 32.0514L8.74672 32.3H9.03429H13.5891H13.8756L14.0205 32.0528L16.3644 28.0528L16.5125 27.8L16.3644 27.5472L14.0205 23.5472ZM7.27206 21.2677L7.27215 21.2677L7.27735 21.2583C7.32074 21.18 7.43428 21.1 7.57143 21.1H15.0513C15.1151 21.1003 15.1765 21.117 15.2292 21.147C15.282 21.177 15.3231 21.2187 15.3502 21.2657L15.3513 21.2677L19.0158 27.5592L19.0962 27.8L19.0158 28.0408L15.3513 34.3324L15.3512 34.3323L15.346 34.3417C15.3026 34.42 15.1891 34.5 15.0519 34.5H7.57143C7.43428 34.5 7.32074 34.42 7.27735 34.3417L7.27745 34.3416L7.27206 34.3324L3.60757 28.0408L3.52714 27.8L3.60756 27.5592L7.27206 21.2677Z" fill="#615DEC" stroke="#301781"/>
</g>
<defs>
<filter id="filter0_d_9_127" x="0" y="0" width="42" height="42" filterUnits="userSpaceOnUse" color-interpolation-filters="sRGB">
<feFlood flood-opacity="0" result="BackgroundImageFix"/>
<feColorMatrix in="SourceAlpha" type="matrix" values="0 0 0 0 0 0 0 0 0 0 0 0 0 0 0 0 0 0 127 0" result="hardAlpha"/>
<feOffset dx="2" dy="2"/>
<feGaussianBlur stdDeviation="2.5"/>
<feComposite in2="hardAlpha" operator="out"/>
<feColorMatrix type="matrix" values="0 0 0 0 0 0 0 0 0 0 0 0 0 0 0 0 0 0 0.25 0"/>
<feBlend mode="normal" in2="BackgroundImageFix" result="effect1_dropShadow_9_127"/>
<feBlend mode="normal" in="SourceGraphic" in2="effect1_dropShadow_9_127" result="shape"/>
</filter>
</defs>
</svg>
