<svg width="28" height="31" viewBox="0 0 28 31" fill="none" xmlns="http://www.w3.org/2000/svg">
<path d="M1.5 22.7206V7.29865L14 0.567878L26.5 7.29865V22.7206L14 30.4129L1.5 22.7206Z" fill="#EEEAEA" stroke="#301781"/>
<path d="M11.4 10.7528V8.14721L13.6 9.24721V11.8528L11.4 10.7528ZM14.4 11.8528V9.24721L16.6 8.14721V10.7528L14.4 11.8528ZM14 6.44721L16.1056 7.5L14 8.55279L11.8944 7.5L14 6.44721Z" stroke="#301781" stroke-width="0.8"/>
<path d="M5.4 19.2528V16.6472L7.6 17.7472V20.3528L5.4 19.2528ZM8.4 20.3528V17.7472L10.6 16.6472V19.2528L8.4 20.3528ZM8 14.9472L10.1056 16L8 17.0528L5.89443 16L8 14.9472Z" stroke="#301781" stroke-width="0.8"/>
<path d="M17.4 19.2528V16.6472L19.6 17.7472V20.3528L17.4 19.2528ZM20.4 20.3528V17.7472L22.6 16.6472V19.2528L20.4 20.3528ZM20 14.9472L22.1056 16L20 17.0528L17.8944 16L20 14.9472Z" stroke="#301781" stroke-width="0.8"/>
<path d="M11.5 9.5L7 12V15.5M16.5 9.5L21 12V15.5M7.5 20L14 24L20.5 20" stroke="#301781" stroke-width="0.8"/>
</svg>
